<?xml version="1.0" encoding="UTF-8"?>
<svg xmlns="http://www.w3.org/2000/svg" xmlns:xlink="http://www.w3.org/1999/xlink" width="20px" height="20px" viewBox="0 0 20 20" version="1.1">
<g id="surface1">
<path style=" stroke:none;fill-rule:nonzero;fill:rgb(50.196078%,50.588235%,51.764706%);fill-opacity:1;" d="M 2.8125 19.0625 C 2.8125 19.578125 3.234375 20 3.75 20 L 16.25 20 C 16.765625 20 17.1875 19.578125 17.1875 19.0625 L 17.1875 4.6875 C 17.1875 4.171875 16.765625 3.75 16.25 3.75 L 5 3.75 C 4.136719 3.75 3.4375 3.050781 3.4375 2.1875 C 3.4375 1.324219 4.136719 0.625 5 0.625 L 16.5625 0.625 C 16.734375 0.625 16.875 0.484375 16.875 0.3125 C 16.875 0.140625 16.734375 0 16.5625 0 L 5 0 C 3.792969 0 2.8125 0.980469 2.8125 2.1875 C 2.8125 2.265625 2.816406 2.339844 2.824219 2.414062 C 2.816406 2.441406 2.8125 2.46875 2.8125 2.5 Z M 3.4375 3.71875 C 3.835938 4.125 4.386719 4.375 5 4.375 L 16.25 4.375 C 16.421875 4.375 16.5625 4.515625 16.5625 4.6875 L 16.5625 19.0625 C 16.5625 19.234375 16.421875 19.375 16.25 19.375 L 3.75 19.375 C 3.578125 19.375 3.4375 19.234375 3.4375 19.0625 Z M 3.4375 3.71875 "/>
<path style=" stroke:none;fill-rule:nonzero;fill:rgb(50.196078%,50.588235%,51.764706%);fill-opacity:1;" d="M 16.5625 1.875 L 5.3125 1.875 C 5.140625 1.875 5 2.015625 5 2.1875 C 5 2.359375 5.140625 2.5 5.3125 2.5 L 16.5625 2.5 C 16.734375 2.5 16.875 2.359375 16.875 2.1875 C 16.875 2.015625 16.734375 1.875 16.5625 1.875 Z M 16.5625 1.875 "/>
</g>
</svg>
